<?xml version="1.0" encoding="UTF-8"?>
<svg xmlns="http://www.w3.org/2000/svg" width="46" height="47" viewBox="0 0 46 47" fill="none">
  <path d="M17.1444 39.3719C16.9843 39.3719 16.8227 39.3222 16.6844 39.2196C13.2078 36.6553 9.67222 34.1035 6.05271 31.4973C5.85533 31.3558 5.73722 31.1305 5.72945 30.8881C5.51965 23.2527 5.63776 15.5117 6.07757 7.8826C6.09777 7.53915 6.34022 7.25008 6.67435 7.17082C12.4991 5.79233 17.7551 4.53039 22.7454 3.31353C22.8666 3.284 22.9925 3.284 23.1137 3.31353C25.0625 3.78908 27.0238 4.26309 28.9975 4.73864C29.4141 4.83966 29.672 5.25927 29.571 5.67577C29.47 6.09227 29.0504 6.3487 28.6339 6.24924C26.7223 5.78922 24.8201 5.32765 22.9303 4.86764C18.1545 6.03166 13.1317 7.23765 7.59749 8.54931C7.19342 15.8194 7.08463 23.1859 7.27268 30.4607C10.7865 32.9923 14.2242 35.4742 17.6059 37.9686C17.951 38.2234 18.0255 38.7099 17.7707 39.0549C17.6184 39.2616 17.3837 39.3704 17.1444 39.3704V39.3719Z" fill="#661A0B"></path>
  <path d="M22.9287 43.7001C22.7625 43.7001 22.5977 43.6473 22.4578 43.5416C21.6419 42.92 20.7779 42.2688 19.892 41.6052C19.5486 41.3472 19.4786 40.8608 19.7366 40.5173C19.9946 40.1739 20.481 40.1039 20.8245 40.3619C21.5409 40.8996 22.2434 41.428 22.9179 41.9409C28.0542 37.8691 33.4065 33.8378 38.5988 29.9307C38.7682 22.8316 38.6548 15.6438 38.26 8.55243C37.1644 8.2929 36.0718 8.03336 34.9808 7.77383C34.5628 7.67436 34.3048 7.25475 34.4043 6.83825C34.5037 6.4202 34.9218 6.16222 35.3398 6.26168C36.6158 6.56628 37.8964 6.86933 39.1816 7.17394C39.5157 7.2532 39.7582 7.54226 39.7784 7.88572C40.2089 15.333 40.3301 22.8891 40.142 30.3457C40.1358 30.5835 40.0224 30.8041 39.8328 30.9471C34.3949 35.0391 28.7737 39.2694 23.4105 43.5338C23.2691 43.6457 23.0981 43.7032 22.9272 43.7032L22.9287 43.7001Z" fill="#661A0B"></path>
  <path d="M22.9287 38.8358C22.7624 38.8358 22.5962 38.7829 22.4563 38.6757C18.2788 35.4743 13.8186 32.1625 9.88512 29.2392C9.69085 29.0946 9.5743 28.8693 9.57119 28.6269C9.48882 22.8984 9.54632 17.0938 9.74059 11.3763C9.75302 11.0344 9.98613 10.7406 10.3172 10.6521C14.7976 9.46006 18.857 8.37063 22.7236 7.32161C22.8572 7.28586 22.9971 7.28586 23.1308 7.32161C27.0005 8.37063 31.0583 9.46006 35.5372 10.6521C35.8682 10.7406 36.1029 11.0344 36.1138 11.3763C36.3034 16.9322 36.364 22.569 36.291 28.1295C36.2878 28.3658 36.1775 28.5865 35.9926 28.731L35.59 29.0465C31.5571 32.1998 27.3859 35.4603 23.4152 38.6633C23.2722 38.7783 23.0997 38.8358 22.9272 38.8358H22.9287ZM11.1206 28.2197C14.8303 30.9751 18.9813 34.0616 22.9163 37.0688C26.7534 33.9823 30.7568 30.8523 34.6343 27.8203L34.7431 27.7348C34.8052 22.5114 34.7508 17.2259 34.5814 12.0041C30.3978 10.8898 26.5778 9.86568 22.9287 8.87572C19.2812 9.86413 15.4613 10.8898 11.276 12.0041C11.1004 17.3829 11.0491 22.8331 11.1206 28.2197Z" fill="#6473F8"></path>
  <path d="M22.9287 28.1187C22.7298 28.1187 22.5371 28.0425 22.391 27.9027C21.5036 27.0541 20.6131 26.204 19.7242 25.3555C18.5772 24.2598 17.4288 23.1657 16.2865 22.0701C15.9772 21.7733 15.9663 21.2806 16.2632 20.9713C16.56 20.6621 17.0511 20.6512 17.3619 20.948C18.5042 22.0421 19.6511 23.1378 20.7981 24.2319C21.4384 24.8426 22.0786 25.4549 22.7189 26.0657C23.0018 25.5249 23.2862 24.984 23.569 24.4417C25.1356 21.4516 26.755 18.362 28.3013 15.3237C28.4956 14.9414 28.9649 14.7891 29.3457 14.9834C29.728 15.1776 29.8803 15.6454 29.686 16.0277C28.135 19.0722 26.5125 22.168 24.9444 25.1612C24.5015 26.0066 24.0586 26.8536 23.6157 27.6991C23.5022 27.9151 23.294 28.0658 23.0531 28.1062C23.0111 28.1125 22.9691 28.1171 22.9272 28.1171L22.9287 28.1187Z" fill="#661A0B"></path>
</svg>
