<svg width="79" height="78" viewBox="0 0 79 78" fill="none" xmlns="http://www.w3.org/2000/svg">
<path d="M39.3364 22.59C38.5084 22.59 37.8364 21.918 37.8364 21.09V1.5C37.8364 0.672 38.5084 0 39.3364 0C40.1644 0 40.8364 0.672 40.8364 1.5V21.09C40.8364 21.918 40.1644 22.59 39.3364 22.59Z" fill="#661A0B"/>
<path d="M26.1424 15.147C25.5784 15.147 25.0384 14.826 24.7834 14.283L21.0244 6.25203C20.6734 5.50203 20.9974 4.60803 21.7474 4.25703C22.4974 3.90603 23.3914 4.23003 23.7424 4.98003L27.5014 13.011C27.8524 13.761 27.5284 14.655 26.7784 15.006C26.5744 15.102 26.3554 15.147 26.1424 15.147Z" fill="#661A0B"/>
<path d="M52.5304 15.147C52.3174 15.147 52.1014 15.102 51.8944 15.006C51.1444 14.655 50.8204 13.761 51.1714 13.011L54.9304 4.98003C55.2814 4.23003 56.1754 3.90603 56.9254 4.25703C57.6754 4.60803 57.9994 5.50203 57.6484 6.25203L53.8894 14.283C53.6344 14.829 53.0944 15.147 52.5304 15.147Z" fill="#661A0B"/>
<path d="M38.7545 77.9999C38.5235 77.9999 38.2925 77.9459 38.0795 77.8409C22.3895 69.9569 12.7085 74.2889 6.3005 77.1569L6.2675 77.1719C4.9505 77.7599 3.4415 77.6459 2.2295 76.8629C1.0415 76.0919 0.333496 74.7959 0.333496 73.3919V31.4039C0.333496 30.5759 1.0055 29.9039 1.8335 29.9039C2.6615 29.9039 3.3335 30.5759 3.3335 31.4039V73.3889C3.3335 73.9409 3.7025 74.2409 3.8615 74.3429C4.0295 74.4539 4.4855 74.6819 5.0405 74.4329L5.0735 74.4179C11.4935 71.5439 22.1855 66.7589 38.7845 74.8439C55.4075 67.5179 65.1125 70.6169 73.6265 74.4329C74.1815 74.6789 74.6375 74.4509 74.8055 74.3429C74.9645 74.2409 75.3335 73.9409 75.3335 73.3889V31.4039C75.3335 30.5759 76.0055 29.9039 76.8335 29.9039C77.6615 29.9039 78.3335 30.5759 78.3335 31.4039V73.3889C78.3335 74.7929 77.6255 76.0889 76.4375 76.8569C75.2285 77.6429 73.7195 77.7569 72.3995 77.1689C64.0625 73.4339 55.2665 70.6769 39.3665 77.8649C39.1685 77.9549 38.9585 77.9969 38.7485 77.9969L38.7545 77.9999Z" fill="#661A0B"/>
<path d="M39.4385 68.967C39.2075 68.967 38.9765 68.913 38.7635 68.808C32.6405 65.73 26.4395 64.758 20.3375 65.919C17.2055 66.51 14.0255 65.703 11.6105 63.702C9.30347 61.791 7.98047 58.989 7.98047 56.016V31.131C7.98047 30.54 8.32847 30.003 8.86547 29.763C14.6885 27.15 26.4815 23.685 40.0565 29.814C40.5935 30.057 40.9385 30.591 40.9385 31.182V59.244C40.9385 60.072 40.2665 60.744 39.4385 60.744C38.6105 60.744 37.9385 60.072 37.9385 59.244V32.163C26.4605 27.327 16.4555 29.841 10.9775 32.118V56.016C10.9775 58.122 11.8805 60.033 13.5215 61.392C15.2465 62.823 17.5295 63.399 19.7765 62.973C26.3285 61.728 32.9495 62.682 39.4685 65.814C52.0415 60.336 60.4835 62.604 67.0895 65.568C67.3535 65.688 67.5725 65.577 67.6535 65.523C67.7435 65.463 67.8935 65.331 67.8935 65.094L68.0825 32.73C62.5985 30.396 56.1515 28.896 46.7405 32.295C45.9605 32.577 45.1025 32.172 44.8205 31.395C44.5385 30.615 44.9435 29.757 45.7205 29.475C56.6495 25.53 63.9455 27.579 70.2005 30.384C70.7435 30.627 71.0915 31.167 71.0885 31.761L70.8935 65.103C70.8935 66.285 70.2935 67.386 69.2855 68.04C68.2595 68.706 66.9815 68.805 65.8625 68.304C59.4395 65.424 51.8705 63.495 40.0505 68.832C39.8525 68.922 39.6425 68.964 39.4325 68.964L39.4385 68.967Z" fill="#661A0B"/>
<path d="M33.1326 56.502H24.7686C23.9406 56.502 23.2686 55.83 23.2686 55.002C23.2686 54.174 23.9406 53.502 24.7686 53.502H33.1326C33.9606 53.502 34.6326 54.174 34.6326 55.002C34.6326 55.83 33.9606 56.502 33.1326 56.502Z" fill="#6473F8"/>
<path d="M33.1324 48.498H16.3354C15.5074 48.498 14.8354 47.826 14.8354 46.998C14.8354 46.17 15.5074 45.498 16.3354 45.498H33.1354C33.9634 45.498 34.6354 46.17 34.6354 46.998C34.6354 47.826 33.9634 48.498 33.1354 48.498H33.1324Z" fill="#6473F8"/>
<path d="M33.1324 40.4879H16.3354C15.5074 40.4879 14.8354 39.8159 14.8354 38.9879C14.8354 38.1599 15.5074 37.4879 16.3354 37.4879H33.1354C33.9634 37.4879 34.6354 38.1599 34.6354 38.9879C34.6354 39.8159 33.9634 40.4879 33.1354 40.4879H33.1324Z" fill="#6473F8"/>
<path d="M63.3604 56.502H46.5664C45.7384 56.502 45.0664 55.83 45.0664 55.002C45.0664 54.174 45.7384 53.502 46.5664 53.502H63.3604C64.1884 53.502 64.8604 54.174 64.8604 55.002C64.8604 55.83 64.1884 56.502 63.3604 56.502Z" fill="#6473F8"/>
<path d="M63.3604 48.498H46.5664C45.7384 48.498 45.0664 47.826 45.0664 46.998C45.0664 46.17 45.7384 45.498 46.5664 45.498H63.3604C64.1884 45.498 64.8604 46.17 64.8604 46.998C64.8604 47.826 64.1884 48.498 63.3604 48.498Z" fill="#6473F8"/>
<path d="M63.3604 40.4879H46.5664C45.7384 40.4879 45.0664 39.8159 45.0664 38.9879C45.0664 38.1599 45.7384 37.4879 46.5664 37.4879H63.3604C64.1884 37.4879 64.8604 38.1599 64.8604 38.9879C64.8604 39.8159 64.1884 40.4879 63.3604 40.4879Z" fill="#6473F8"/>
<path d="M21.3427 65.688C19.8967 65.688 18.6907 65.127 17.8537 64.068C16.3627 62.178 16.4167 59.04 16.6687 56.955C16.1467 57 15.5617 57.039 14.9497 57.057C11.9857 57.15 10.0057 56.733 8.8927 55.785C8.2087 55.2 7.8457 54.429 7.8457 53.553C7.8457 52.725 8.5177 52.053 9.3457 52.053C10.1737 52.053 10.8247 52.704 10.8457 53.514C11.4697 54.147 15.0187 54.264 18.2497 53.751C18.7447 53.673 19.2457 53.847 19.5847 54.213C19.9237 54.579 20.0587 55.092 19.9447 55.581C19.5697 57.162 19.1437 60.864 20.2087 62.211C20.3947 62.448 20.6767 62.688 21.3427 62.688C22.1707 62.688 22.8427 63.36 22.8427 64.188C22.8427 65.016 22.1707 65.688 21.3427 65.688Z" fill="#661A0B"/>
</svg>
